<svg width="48" height="48" viewBox="0 0 48 48" fill="none" xmlns="http://www.w3.org/2000/svg">
<rect width="48" height="48" fill="white"/>
<path d="M21.5 43.5C21.5 43.6141 21.4524 43.8482 21.1072 44.1979C20.7557 44.5541 20.1726 44.9437 19.3337 45.3033C17.6613 46.02 15.2462 46.5 12.5 46.5C9.75378 46.5 7.33872 46.02 5.66626 45.3033C4.82736 44.9437 4.2443 44.5541 3.89276 44.1979C3.54759 43.8482 3.5 43.6141 3.5 43.5C3.5 43.3859 3.54759 43.1518 3.89276 42.8021C4.2443 42.4459 4.82736 42.0563 5.66626 41.6967C7.33872 40.98 9.75378 40.5 12.5 40.5C15.2462 40.5 17.6613 40.98 19.3337 41.6967C20.1726 42.0563 20.7557 42.4459 21.1072 42.8021C21.4524 43.1518 21.5 43.3859 21.5 43.5Z" stroke="#152C5B" stroke-width="3"/>
<path d="M22.5 11C22.5 13.8316 21.2002 21.9251 19.0446 29.3605C17.9706 33.0651 16.7138 36.4992 15.3556 38.9771C14.6746 40.2193 14.0074 41.148 13.3809 41.7479C12.75 42.352 12.2941 42.5 12 42.5C11.7059 42.5 11.25 42.352 10.6191 41.7479C9.99265 41.148 9.32535 40.2193 8.64441 38.9771C7.28621 36.4992 6.02938 33.0651 4.9554 29.3605C2.79984 21.9251 1.5 13.8316 1.5 11C1.5 5.87348 6.07548 1.5 12 1.5C17.9245 1.5 22.5 5.87348 22.5 11Z" stroke="#152C5B" stroke-width="3"/>
<path d="M22.5 11C22.5 13.8316 21.2002 21.9251 19.0446 29.3605C17.9706 33.0651 16.7138 36.4992 15.3556 38.9771C14.6746 40.2193 14.0074 41.148 13.3809 41.7479C12.75 42.352 12.2941 42.5 12 42.5C11.7059 42.5 11.25 42.352 10.6191 41.7479C9.99265 41.148 9.32535 40.2193 8.64441 38.9771C7.28621 36.4992 6.02938 33.0651 4.9554 29.3605C2.79984 21.9251 1.5 13.8316 1.5 11C1.5 5.87348 6.07548 1.5 12 1.5C17.9245 1.5 22.5 5.87348 22.5 11Z" stroke="#152C5B" stroke-width="3"/>
<path d="M16.5 14.5C16.5 16.5889 14.6108 18.5 12 18.5C9.38919 18.5 7.5 16.5889 7.5 14.5C7.5 12.4111 9.38919 10.5 12 10.5C14.6108 10.5 16.5 12.4111 16.5 14.5Z" stroke="#FF4988" stroke-width="3"/>
</svg>
