<svg width="48" height="48" viewBox="0 0 48 48" fill="none" xmlns="http://www.w3.org/2000/svg">
<rect width="48" height="48" fill="white"/>
<mask id="path-1-inside-1" fill="white">
<path fill-rule="evenodd" clip-rule="evenodd" d="M31.3684 5H16.5L15.25 11.3333H5C2.23858 11.3333 0 13.5719 0 16.3333V38C0 40.7614 2.23858 43 5 43H43C45.7614 43 48 40.7614 48 38V16.3333C48 13.5719 45.7614 11.3333 43 11.3333H32.6842L31.3684 5Z"/>
</mask>
<path d="M16.5 5V2H14.0342L13.5568 4.4191L16.5 5ZM31.3684 5L34.3057 4.38976L33.8092 2H31.3684V5ZM15.25 11.3333V14.3333H17.7158L18.1932 11.9142L15.25 11.3333ZM32.6842 11.3333L29.7469 11.9436L30.2434 14.3333H32.6842V11.3333ZM16.5 8H31.3684V2H16.5V8ZM18.1932 11.9142L19.4432 5.5809L13.5568 4.4191L12.3068 10.7524L18.1932 11.9142ZM5 14.3333H15.25V8.33333H5V14.3333ZM3 16.3333C3 15.2288 3.89543 14.3333 5 14.3333V8.33333C0.581725 8.33333 -3 11.915 -3 16.3333H3ZM3 38V16.3333H-3V38H3ZM5 40C3.89543 40 3 39.1046 3 38H-3C-3 42.4183 0.581723 46 5 46V40ZM43 40H5V46H43V40ZM45 38C45 39.1046 44.1046 40 43 40V46C47.4183 46 51 42.4183 51 38H45ZM45 16.3333V38H51V16.3333H45ZM43 14.3333C44.1046 14.3333 45 15.2288 45 16.3333H51C51 11.9151 47.4183 8.33333 43 8.33333V14.3333ZM32.6842 14.3333H43V8.33333H32.6842V14.3333ZM28.4311 5.61024L29.7469 11.9436L35.6215 10.7231L34.3057 4.38976L28.4311 5.61024Z" fill="#152C5B" mask="url(#path-1-inside-1)"/>
<circle cx="23.5" cy="27.5" r="6" stroke="#FF4988" stroke-width="3"/>
<path d="M33 17H39.5" stroke="#FF4988" stroke-width="2" stroke-linecap="round"/>
</svg>
