<svg width="30" height="28" viewBox="0 0 30 28" fill="none" xmlns="http://www.w3.org/2000/svg">
<path d="M13.9547 1.17705C14.254 0.255738 15.5574 0.25574 15.8568 1.17705L18.5541 9.47847C18.688 9.8905 19.0719 10.1695 19.5051 10.1695H28.2338C29.2025 10.1695 29.6053 11.4091 28.8216 11.9785L21.7599 17.109C21.4095 17.3637 21.2628 17.815 21.3967 18.2271L24.094 26.5285C24.3933 27.4498 23.3388 28.2159 22.5551 27.6465L15.4935 22.516C15.143 22.2613 14.6684 22.2613 14.3179 22.516L7.25633 27.6465C6.47261 28.2159 5.41813 27.4498 5.71749 26.5285L8.41478 18.2271C8.54866 17.815 8.402 17.3637 8.05151 17.109L0.989897 11.9785C0.206183 11.4091 0.60896 10.1695 1.57768 10.1695H10.3063C10.7395 10.1695 11.1235 9.8905 11.2574 9.47847L13.9547 1.17705Z" fill="#FFB74B"/>
</svg>
